<svg width="90" height="90" viewBox="0 0 90 90" fill="none" xmlns="http://www.w3.org/2000/svg">
<path d="M65 13.25C59.25 9.625 52.375 7.5 45 7.5C37.625 7.5 30.75 9.625 25 13.25V76.625C30.75 80.25 37.625 82.375 45 82.375C52.375 82.375 59.25 80.25 65 76.625V13.25Z" fill="#F9F9F9"/>
<path d="M65 13.25V76.625C75.5 70.125 82.5 58.125 82.5 44.875C82.5 31.625 75.5 19.875 65 13.25Z" fill="#D90026"/>
<path d="M25 13.25C14.5 19.875 7.5 31.875 7.5 45C7.5 58.125 14.5 70.125 25 76.75V13.25Z" fill="#D90026"/>
<path d="M58.625 44.5C58.125 44.25 58 43.75 58.125 43.5L59.375 39L55 39.875C54.875 39.875 54.375 39.875 54.25 39L53.875 37.5L50.875 41C50.875 41 48.875 43.125 49.5 39.875L50.75 33L48.375 34.25C48.25 34.25 47.75 34.375 47.125 33.125L45 28.75L42.75 32.875C42.125 34.125 41.625 34 41.5 34L39.125 32.75L40.375 39.625C41 42.875 39 40.75 39 40.75L36 37.25L35.625 38.75C35.375 39.625 35 39.625 34.875 39.625L30.5 38.75L31.75 43.25C31.75 43.625 31.75 44 31.25 44.25L30 45C30 45 35 49 36.625 50.375C37 50.625 37.75 51.375 37.5 52.25L36.875 54L43.75 53C44.125 53 44.875 53 44.75 54.125L44.375 61.25H45.625L45.25 54.125C45.25 53 46 53 46.25 53L53.125 54L52.5 52.25C52.25 51.375 53 50.625 53.375 50.375C55 49 60 45 60 45L58.625 44.5Z" fill="#D90026"/>
</svg>
